<svg xmlns="http://www.w3.org/2000/svg" xmlns:xlink="http://www.w3.org/1999/xlink" width="500" zoomAndPan="magnify" viewBox="0 0 375 374.999991" height="500" preserveAspectRatio="xMidYMid meet" version="1.0"><defs><g/><clipPath id="a629ed0201"><path d="M 161.890625 165.613281 L 298.507812 165.613281 L 298.507812 209.386719 L 161.890625 209.386719 Z M 161.890625 165.613281 " clip-rule="nonzero"/></clipPath><clipPath id="d63776ce1d"><path d="M 193.867188 165.613281 L 292.476562 165.613281 C 294.625 165.613281 296.609375 166.765625 297.675781 168.636719 C 298.742188 170.503906 298.722656 172.796875 297.625 174.648438 L 282.40625 200.351562 C 279.089844 205.953125 273.0625 209.386719 266.554688 209.386719 L 167.945312 209.386719 C 165.796875 209.386719 163.8125 208.234375 162.746094 206.363281 C 161.683594 204.496094 161.703125 202.203125 162.796875 200.351562 L 178.019531 174.648438 C 181.335938 169.046875 187.359375 165.613281 193.867188 165.613281 Z M 193.867188 165.613281 " clip-rule="nonzero"/></clipPath></defs><rect x="-37.5" width="450" fill="#ffffff" y="-37.499999" height="449.999989" fill-opacity="1"/><rect x="-37.5" width="450" fill="#ffffff" y="-37.499999" height="449.999989" fill-opacity="1"/><g clip-path="url(#a629ed0201)"><g clip-path="url(#d63776ce1d)"><path fill="#000000" d="M 157.445312 165.613281 L 302.957031 165.613281 L 302.957031 209.386719 L 157.445312 209.386719 Z M 157.445312 165.613281 " fill-opacity="1" fill-rule="nonzero"/></g></g><g fill="#000000" fill-opacity="1"><g transform="translate(72.023781, 202.018825)"><g><path d="M 9.140625 -5.484375 L 20.09375 -5.484375 L 20.09375 0 L 2.578125 0 L 2.578125 -25.796875 L 9.140625 -25.796875 Z M 9.140625 -5.484375 "/></g></g></g><g fill="#000000" fill-opacity="1"><g transform="translate(90.565203, 202.018825)"><g><path d="M 11.234375 -20.09375 C 14.679688 -20.09375 17.269531 -19.035156 19 -16.921875 C 20.726562 -14.804688 21.484375 -11.90625 21.265625 -8.21875 L 7.296875 -8.21875 C 7.617188 -7.039062 8.179688 -6.128906 8.984375 -5.484375 C 9.796875 -4.847656 10.796875 -4.53125 11.984375 -4.53125 C 13.796875 -4.53125 15.378906 -5.207031 16.734375 -6.5625 L 20.09375 -3.28125 C 17.945312 -0.945312 15.054688 0.21875 11.421875 0.21875 C 8.203125 0.21875 5.640625 -0.703125 3.734375 -2.546875 C 1.835938 -4.390625 0.890625 -6.832031 0.890625 -9.875 C 0.890625 -12.945312 1.835938 -15.414062 3.734375 -17.28125 C 5.640625 -19.15625 8.140625 -20.09375 11.234375 -20.09375 Z M 7.1875 -11.640625 L 15.15625 -11.640625 C 15.15625 -12.847656 14.800781 -13.820312 14.09375 -14.5625 C 13.394531 -15.300781 12.46875 -15.671875 11.3125 -15.671875 C 10.226562 -15.671875 9.316406 -15.304688 8.578125 -14.578125 C 7.847656 -13.847656 7.382812 -12.867188 7.1875 -11.640625 Z M 7.1875 -11.640625 "/></g></g></g><g fill="#000000" fill-opacity="1"><g transform="translate(110.654832, 202.018825)"><g><path d="M 14.109375 -5.484375 L 15.375 -1.0625 C 13.820312 -0.15625 12.050781 0.296875 10.0625 0.296875 C 8.09375 0.296875 6.5 -0.25 5.28125 -1.34375 C 4.070312 -2.4375 3.46875 -3.992188 3.46875 -6.015625 L 3.46875 -14.78125 L 0.703125 -14.78125 L 0.703125 -18.953125 L 3.46875 -18.953125 L 3.46875 -24.46875 L 9.796875 -24.46875 L 9.796875 -18.984375 L 15 -18.984375 L 15 -14.78125 L 9.796875 -14.78125 L 9.796875 -7 C 9.796875 -6.238281 9.945312 -5.679688 10.25 -5.328125 C 10.5625 -4.972656 11.023438 -4.804688 11.640625 -4.828125 C 12.234375 -4.828125 13.054688 -5.046875 14.109375 -5.484375 Z M 14.109375 -5.484375 "/></g></g></g><g fill="#000000" fill-opacity="1"><g transform="translate(124.588489, 202.018825)"><g><path d="M 9.65625 -20.15625 C 12.582031 -20.15625 15.3125 -19.40625 17.84375 -17.90625 L 15.671875 -13.78125 C 13.210938 -15.113281 11.125 -15.78125 9.40625 -15.78125 C 8.101562 -15.78125 7.453125 -15.320312 7.453125 -14.40625 C 7.453125 -13.914062 7.804688 -13.503906 8.515625 -13.171875 C 9.222656 -12.835938 10.09375 -12.535156 11.125 -12.265625 C 12.15625 -12.003906 13.179688 -11.671875 14.203125 -11.265625 C 15.222656 -10.859375 16.085938 -10.210938 16.796875 -9.328125 C 17.515625 -8.441406 17.875 -7.359375 17.875 -6.078125 C 17.875 -4.085938 17.097656 -2.53125 15.546875 -1.40625 C 14.003906 -0.289062 11.992188 0.265625 9.515625 0.265625 C 5.992188 0.265625 3.019531 -0.671875 0.59375 -2.546875 L 2.609375 -6.59375 C 4.953125 -4.945312 7.300781 -4.125 9.65625 -4.125 C 11.101562 -4.125 11.828125 -4.578125 11.828125 -5.484375 C 11.828125 -6.003906 11.476562 -6.4375 10.78125 -6.78125 C 10.082031 -7.125 9.226562 -7.429688 8.21875 -7.703125 C 7.207031 -7.972656 6.195312 -8.3125 5.1875 -8.71875 C 4.1875 -9.125 3.332031 -9.753906 2.625 -10.609375 C 1.925781 -11.472656 1.578125 -12.554688 1.578125 -13.859375 C 1.578125 -15.847656 2.328125 -17.394531 3.828125 -18.5 C 5.328125 -19.601562 7.269531 -20.15625 9.65625 -20.15625 Z M 9.65625 -20.15625 "/></g></g></g><g fill="#000000" fill-opacity="1"><g transform="translate(141.397388, 202.018825)"><g><path d="M 19.71875 -13.125 L 25.390625 -13.125 L 25.390625 -3.0625 C 23.992188 -2.070312 22.304688 -1.265625 20.328125 -0.640625 C 18.347656 -0.015625 16.460938 0.296875 14.671875 0.296875 C 10.734375 0.296875 7.453125 -0.960938 4.828125 -3.484375 C 2.203125 -6.003906 0.890625 -9.144531 0.890625 -12.90625 C 0.890625 -16.632812 2.238281 -19.75 4.9375 -22.25 C 7.644531 -24.757812 11.035156 -26.015625 15.109375 -26.015625 C 17.023438 -26.015625 18.925781 -25.671875 20.8125 -24.984375 C 22.707031 -24.296875 24.320312 -23.363281 25.65625 -22.1875 L 21.96875 -17.734375 C 21.03125 -18.585938 19.945312 -19.265625 18.71875 -19.765625 C 17.488281 -20.273438 16.273438 -20.53125 15.078125 -20.53125 C 12.960938 -20.53125 11.1875 -19.796875 9.75 -18.328125 C 8.3125 -16.867188 7.59375 -15.0625 7.59375 -12.90625 C 7.59375 -10.71875 8.316406 -8.882812 9.765625 -7.40625 C 11.210938 -5.9375 13.007812 -5.203125 15.15625 -5.203125 C 16.53125 -5.203125 18.050781 -5.617188 19.71875 -6.453125 Z M 19.71875 -13.125 "/></g></g></g><g fill="#ffffff" fill-opacity="1"><g transform="translate(167.807293, 202.018825)"><g><path d="M 11.234375 -20.09375 C 14.679688 -20.09375 17.269531 -19.035156 19 -16.921875 C 20.726562 -14.804688 21.484375 -11.90625 21.265625 -8.21875 L 7.296875 -8.21875 C 7.617188 -7.039062 8.179688 -6.128906 8.984375 -5.484375 C 9.796875 -4.847656 10.796875 -4.53125 11.984375 -4.53125 C 13.796875 -4.53125 15.378906 -5.207031 16.734375 -6.5625 L 20.09375 -3.28125 C 17.945312 -0.945312 15.054688 0.21875 11.421875 0.21875 C 8.203125 0.21875 5.640625 -0.703125 3.734375 -2.546875 C 1.835938 -4.390625 0.890625 -6.832031 0.890625 -9.875 C 0.890625 -12.945312 1.835938 -15.414062 3.734375 -17.28125 C 5.640625 -19.15625 8.140625 -20.09375 11.234375 -20.09375 Z M 7.1875 -11.640625 L 15.15625 -11.640625 C 15.15625 -12.847656 14.800781 -13.820312 14.09375 -14.5625 C 13.394531 -15.300781 12.46875 -15.671875 11.3125 -15.671875 C 10.226562 -15.671875 9.316406 -15.304688 8.578125 -14.578125 C 7.847656 -13.847656 7.382812 -12.867188 7.1875 -11.640625 Z M 7.1875 -11.640625 "/></g></g></g><g fill="#ffffff" fill-opacity="1"><g transform="translate(187.896922, 202.018825)"><g><path d="M 14.109375 -5.484375 L 15.375 -1.0625 C 13.820312 -0.15625 12.050781 0.296875 10.0625 0.296875 C 8.09375 0.296875 6.5 -0.25 5.28125 -1.34375 C 4.070312 -2.4375 3.46875 -3.992188 3.46875 -6.015625 L 3.46875 -14.78125 L 0.703125 -14.78125 L 0.703125 -18.953125 L 3.46875 -18.953125 L 3.46875 -24.46875 L 9.796875 -24.46875 L 9.796875 -18.984375 L 15 -18.984375 L 15 -14.78125 L 9.796875 -14.78125 L 9.796875 -7 C 9.796875 -6.238281 9.945312 -5.679688 10.25 -5.328125 C 10.5625 -4.972656 11.023438 -4.804688 11.640625 -4.828125 C 12.234375 -4.828125 13.054688 -5.046875 14.109375 -5.484375 Z M 14.109375 -5.484375 "/></g></g></g><g fill="#ffffff" fill-opacity="1"><g transform="translate(201.830577, 202.018825)"><g><path d="M 2.578125 -25.796875 L 14.78125 -25.796875 C 17.675781 -25.796875 19.976562 -25.210938 21.6875 -24.046875 C 23.394531 -22.878906 24.25 -21.3125 24.25 -19.34375 C 24.25 -18 23.851562 -16.816406 23.0625 -15.796875 C 22.28125 -14.773438 21.203125 -14.066406 19.828125 -13.671875 C 21.453125 -13.359375 22.742188 -12.609375 23.703125 -11.421875 C 24.660156 -10.242188 25.140625 -8.820312 25.140625 -7.15625 C 25.140625 -4.96875 24.25 -3.226562 22.46875 -1.9375 C 20.6875 -0.644531 18.269531 0 15.21875 0 L 2.578125 0 Z M 9.109375 -20.78125 L 9.109375 -15.484375 L 14.40625 -15.484375 C 15.363281 -15.484375 16.125 -15.722656 16.6875 -16.203125 C 17.257812 -16.679688 17.546875 -17.335938 17.546875 -18.171875 C 17.546875 -18.984375 17.257812 -19.617188 16.6875 -20.078125 C 16.125 -20.546875 15.363281 -20.78125 14.40625 -20.78125 Z M 9.109375 -10.765625 L 9.109375 -5.046875 L 14.40625 -5.046875 C 15.632812 -5.046875 16.597656 -5.300781 17.296875 -5.8125 C 18.003906 -6.332031 18.359375 -7.050781 18.359375 -7.96875 C 18.359375 -8.820312 18.003906 -9.5 17.296875 -10 C 16.597656 -10.507812 15.632812 -10.765625 14.40625 -10.765625 Z M 9.109375 -10.765625 "/></g></g></g><g fill="#ffffff" fill-opacity="1"><g transform="translate(226.085617, 202.018825)"><g><path d="M 8.921875 -19.859375 L 8.921875 -16.515625 C 10.316406 -18.898438 12.46875 -20.113281 15.375 -20.15625 L 15.375 -14.40625 C 13.550781 -14.582031 12.0625 -14.28125 10.90625 -13.5 C 9.75 -12.726562 9.085938 -11.628906 8.921875 -10.203125 L 8.921875 0 L 2.546875 0 L 2.546875 -19.859375 Z M 8.921875 -19.859375 "/></g></g></g><g fill="#ffffff" fill-opacity="1"><g transform="translate(239.724377, 202.018825)"><g><path d="M 11.46875 -20.15625 C 14.1875 -20.15625 16.300781 -19.519531 17.8125 -18.25 C 19.332031 -16.988281 20.101562 -15.226562 20.125 -12.96875 L 20.125 0 L 13.890625 0 L 13.890625 -2.28125 C 12.585938 -0.5625 10.5625 0.296875 7.8125 0.296875 C 5.726562 0.296875 4.070312 -0.28125 2.84375 -1.4375 C 1.613281 -2.59375 1 -4.09375 1 -5.9375 C 1 -7.820312 1.65625 -9.285156 2.96875 -10.328125 C 4.28125 -11.378906 6.164062 -11.914062 8.625 -11.9375 L 13.859375 -11.9375 L 13.859375 -12.234375 C 13.859375 -13.222656 13.53125 -13.992188 12.875 -14.546875 C 12.226562 -15.097656 11.265625 -15.375 9.984375 -15.375 C 8.191406 -15.375 6.210938 -14.820312 4.046875 -13.71875 L 2.25 -17.90625 C 5.46875 -19.40625 8.539062 -20.15625 11.46875 -20.15625 Z M 9.765625 -4.015625 C 10.773438 -4.015625 11.660156 -4.265625 12.421875 -4.765625 C 13.179688 -5.273438 13.660156 -5.9375 13.859375 -6.75 L 13.859375 -8.515625 L 9.84375 -8.515625 C 7.925781 -8.515625 6.96875 -7.800781 6.96875 -6.375 C 6.96875 -5.632812 7.210938 -5.054688 7.703125 -4.640625 C 8.191406 -4.222656 8.878906 -4.015625 9.765625 -4.015625 Z M 9.765625 -4.015625 "/></g></g></g><g fill="#ffffff" fill-opacity="1"><g transform="translate(259.740278, 202.018825)"><g><path d="M 3.328125 -28 C 3.960938 -28.625 4.769531 -28.9375 5.75 -28.9375 C 6.726562 -28.9375 7.53125 -28.625 8.15625 -28 C 8.789062 -27.375 9.109375 -26.566406 9.109375 -25.578125 C 9.109375 -24.597656 8.789062 -23.785156 8.15625 -23.140625 C 7.53125 -22.503906 6.726562 -22.1875 5.75 -22.1875 C 4.769531 -22.1875 3.960938 -22.503906 3.328125 -23.140625 C 2.703125 -23.785156 2.390625 -24.597656 2.390625 -25.578125 C 2.390625 -26.566406 2.703125 -27.375 3.328125 -28 Z M 8.890625 0 L 2.546875 0 L 2.546875 -19.859375 L 8.890625 -19.859375 Z M 8.890625 0 "/></g></g></g><g fill="#ffffff" fill-opacity="1"><g transform="translate(269.103043, 202.018825)"><g><path d="M 22.5625 -27.34375 L 22.5625 0 L 16.1875 0 L 16.1875 -2.609375 C 14.726562 -0.691406 12.734375 0.265625 10.203125 0.265625 C 7.410156 0.265625 5.164062 -0.679688 3.46875 -2.578125 C 1.769531 -4.472656 0.921875 -6.957031 0.921875 -10.03125 C 0.921875 -13.070312 1.753906 -15.515625 3.421875 -17.359375 C 5.097656 -19.203125 7.3125 -20.125 10.0625 -20.125 C 12.6875 -20.125 14.726562 -19.164062 16.1875 -17.25 L 16.1875 -27.34375 Z M 8.546875 -6.125 C 9.359375 -5.164062 10.425781 -4.6875 11.75 -4.6875 C 13.082031 -4.6875 14.15625 -5.164062 14.96875 -6.125 C 15.78125 -7.082031 16.1875 -8.332031 16.1875 -9.875 C 16.1875 -11.394531 15.78125 -12.632812 14.96875 -13.59375 C 14.15625 -14.550781 13.082031 -15.03125 11.75 -15.03125 C 10.425781 -15.03125 9.359375 -14.554688 8.546875 -13.609375 C 7.734375 -12.671875 7.316406 -11.425781 7.296875 -9.875 C 7.316406 -8.332031 7.734375 -7.082031 8.546875 -6.125 Z M 8.546875 -6.125 "/></g></g></g></svg>