<svg xmlns="http://www.w3.org/2000/svg" xmlns:xlink="http://www.w3.org/1999/xlink" width="500" zoomAndPan="magnify" viewBox="0 0 375 374.999991" height="500" preserveAspectRatio="xMidYMid meet" version="1.0"><defs><g/></defs><rect x="-37.5" width="450" fill="#ffffff" y="-37.499999" height="449.999989" fill-opacity="1"/><rect x="-37.5" width="450" fill="#f1e6dc" y="-37.499999" height="449.999989" fill-opacity="1"/><g fill="#a8a29c" fill-opacity="1"><g transform="translate(182.386596, 247.138971)"><g><path d="M 68.1875 -63.078125 C 79.289062 -62.515625 88.441406 -60.757812 95.640625 -57.8125 C 102.835938 -54.863281 108.078125 -51.207031 111.359375 -46.84375 C 114.648438 -42.476562 116.296875 -37.859375 116.296875 -32.984375 C 116.296875 -21.878906 111.875 -13.601562 103.03125 -8.15625 C 94.195312 -2.71875 81.617188 0 65.296875 0 C 62.003906 0 59.222656 -0.0546875 56.953125 -0.171875 C 49.242188 -0.398438 41.707031 -0.515625 34.34375 -0.515625 C 21.082031 -0.515625 11.222656 -0.34375 4.765625 0 L 4.765625 -3.40625 C 8.390625 -3.625 11.019531 -4.070312 12.65625 -4.75 C 14.300781 -5.4375 15.40625 -6.742188 15.96875 -8.671875 C 16.539062 -10.597656 16.828125 -13.710938 16.828125 -18.015625 L 16.828125 -102.359375 C 16.828125 -106.660156 16.515625 -109.773438 15.890625 -111.703125 C 15.273438 -113.628906 14.171875 -114.929688 12.578125 -115.609375 C 10.992188 -116.296875 8.390625 -116.753906 4.765625 -116.984375 L 4.765625 -120.375 C 11.222656 -120.039062 20.96875 -119.875 34 -119.875 L 53.5625 -120.046875 C 55.820312 -120.160156 58.425781 -120.21875 61.375 -120.21875 C 76.34375 -120.21875 87.765625 -117.804688 95.640625 -112.984375 C 103.515625 -108.171875 107.453125 -101.679688 107.453125 -93.515625 C 107.453125 -89.316406 105.976562 -85.09375 103.03125 -80.84375 C 100.09375 -76.59375 95.675781 -72.878906 89.78125 -69.703125 C 83.882812 -66.535156 76.6875 -64.441406 68.1875 -63.421875 Z M 60.53125 -116.984375 C 57.925781 -116.984375 55.96875 -116.582031 54.65625 -115.78125 C 53.351562 -114.988281 52.472656 -113.570312 52.015625 -111.53125 C 51.566406 -109.5 51.34375 -106.441406 51.34375 -102.359375 L 51.34375 -63.9375 L 55.9375 -63.9375 C 62.0625 -63.9375 66.34375 -66.457031 68.78125 -71.5 C 71.21875 -76.539062 72.4375 -83.253906 72.4375 -91.640625 C 72.4375 -100.253906 71.5 -106.628906 69.625 -110.765625 C 67.757812 -114.910156 64.726562 -116.984375 60.53125 -116.984375 Z M 62.40625 -3.90625 C 74.53125 -3.90625 80.59375 -13.828125 80.59375 -33.671875 C 80.59375 -42.617188 78.4375 -49.414062 74.125 -54.0625 C 69.820312 -58.71875 63.023438 -61.046875 53.734375 -61.046875 L 51.34375 -61.046875 L 51.34375 -18.015625 C 51.34375 -13.941406 51.625 -10.941406 52.1875 -9.015625 C 52.757812 -7.085938 53.8125 -5.753906 55.34375 -5.015625 C 56.875 -4.273438 59.226562 -3.90625 62.40625 -3.90625 Z M 62.40625 -3.90625 "/></g></g></g><g fill="#000000" fill-opacity="1"><g transform="translate(102.756281, 247.63471)"><g><path d="M 65.125 -116.984375 C 61.039062 -116.753906 58.0625 -116.296875 56.1875 -115.609375 C 54.320312 -114.929688 53.046875 -113.628906 52.359375 -111.703125 C 51.679688 -109.773438 51.34375 -106.660156 51.34375 -102.359375 L 51.34375 -14.625 C 51.34375 -11.445312 51.566406 -9.117188 52.015625 -7.640625 C 52.472656 -6.171875 53.269531 -5.179688 54.40625 -4.671875 C 55.539062 -4.160156 57.410156 -3.90625 60.015625 -3.90625 L 65.625 -3.90625 C 69.59375 -3.90625 73.898438 -5.890625 78.546875 -9.859375 C 83.203125 -13.828125 87.398438 -19.066406 91.140625 -25.578125 C 94.878906 -32.097656 97.375 -38.875 98.625 -45.90625 L 102.53125 -45.90625 C 102.1875 -41.820312 102.015625 -36.609375 102.015625 -30.265625 C 102.015625 -18.023438 102.410156 -7.9375 103.203125 0 C 95.492188 -0.34375 82.515625 -0.515625 64.265625 -0.515625 C 37.742188 -0.515625 17.910156 -0.34375 4.765625 0 L 4.765625 -3.40625 C 8.390625 -3.625 11.019531 -4.070312 12.65625 -4.75 C 14.300781 -5.4375 15.40625 -6.742188 15.96875 -8.671875 C 16.539062 -10.597656 16.828125 -13.710938 16.828125 -18.015625 L 16.828125 -102.359375 C 16.828125 -106.660156 16.515625 -109.773438 15.890625 -111.703125 C 15.273438 -113.628906 14.171875 -114.929688 12.578125 -115.609375 C 10.992188 -116.296875 8.390625 -116.753906 4.765625 -116.984375 L 4.765625 -120.375 C 11.222656 -120.039062 21.3125 -119.875 35.03125 -119.875 C 48.0625 -119.875 58.09375 -120.039062 65.125 -120.375 Z M 65.125 -116.984375 "/></g></g></g><path fill="#fdf7f2" d="M 100.648438 174.414062 L 281.828125 174.414062 L 281.828125 200.125 L 100.648438 200.125 L 100.648438 174.414062 " fill-opacity="1" fill-rule="nonzero"/><g fill="#201212" fill-opacity="1"><g transform="translate(112.234832, 191.901322)"><g><path d="M 1.125 0 L 1.125 -9.34375 L 2.265625 -9.34375 L 2.265625 -1 L 6.609375 -1 L 6.609375 0 Z M 1.125 0 "/></g></g></g><g fill="#201212" fill-opacity="1"><g transform="translate(122.072303, 191.901322)"><g><path d="M 1.125 0 L 1.125 -9.34375 L 6.765625 -9.34375 L 6.765625 -8.34375 L 2.265625 -8.34375 L 2.265625 -5.1875 L 6.46875 -5.1875 L 6.46875 -4.171875 L 2.265625 -4.171875 L 2.265625 -1 L 6.84375 -1 L 6.84375 0 Z M 1.125 0 "/></g></g></g><g fill="#201212" fill-opacity="1"><g transform="translate(132.365408, 191.901322)"><g><path d="M 0.625 -8.34375 L 0.625 -9.34375 L 7.625 -9.34375 L 7.625 -8.34375 L 4.6875 -8.34375 L 4.6875 0 L 3.5625 0 L 3.5625 -8.34375 Z M 0.625 -8.34375 "/></g></g></g><g fill="#201212" fill-opacity="1"><g transform="translate(143.223514, 191.901322)"><g><path d="M 6.234375 -7 C 6.179688 -7.46875 5.957031 -7.828125 5.5625 -8.078125 C 5.175781 -8.335938 4.703125 -8.46875 4.140625 -8.46875 C 3.515625 -8.46875 3.015625 -8.316406 2.640625 -8.015625 C 2.265625 -7.722656 2.078125 -7.359375 2.078125 -6.921875 C 2.078125 -6.578125 2.179688 -6.300781 2.390625 -6.09375 C 2.597656 -5.894531 2.84375 -5.738281 3.125 -5.625 C 3.40625 -5.507812 3.660156 -5.421875 3.890625 -5.359375 L 4.828125 -5.109375 C 5.078125 -5.046875 5.347656 -4.957031 5.640625 -4.84375 C 5.941406 -4.726562 6.226562 -4.570312 6.5 -4.375 C 6.78125 -4.1875 7.007812 -3.941406 7.1875 -3.640625 C 7.375 -3.335938 7.46875 -2.96875 7.46875 -2.53125 C 7.46875 -2.03125 7.332031 -1.578125 7.0625 -1.171875 C 6.800781 -0.765625 6.414062 -0.4375 5.90625 -0.1875 C 5.40625 0.0507812 4.800781 0.171875 4.09375 0.171875 C 3.082031 0.171875 2.28125 -0.0664062 1.6875 -0.546875 C 1.101562 -1.023438 0.785156 -1.644531 0.734375 -2.40625 L 1.890625 -2.40625 C 1.921875 -2.050781 2.039062 -1.757812 2.25 -1.53125 C 2.457031 -1.300781 2.722656 -1.128906 3.046875 -1.015625 C 3.367188 -0.910156 3.71875 -0.859375 4.09375 -0.859375 C 4.519531 -0.859375 4.90625 -0.925781 5.25 -1.0625 C 5.59375 -1.207031 5.863281 -1.40625 6.0625 -1.65625 C 6.257812 -1.914062 6.359375 -2.210938 6.359375 -2.546875 C 6.359375 -2.859375 6.269531 -3.113281 6.09375 -3.3125 C 5.925781 -3.507812 5.703125 -3.664062 5.421875 -3.78125 C 5.140625 -3.90625 4.832031 -4.015625 4.5 -4.109375 L 3.359375 -4.4375 C 2.628906 -4.644531 2.050781 -4.941406 1.625 -5.328125 C 1.195312 -5.722656 0.984375 -6.234375 0.984375 -6.859375 C 0.984375 -7.378906 1.125 -7.832031 1.40625 -8.21875 C 1.695312 -8.613281 2.082031 -8.921875 2.5625 -9.140625 C 3.039062 -9.359375 3.578125 -9.46875 4.171875 -9.46875 C 4.773438 -9.46875 5.3125 -9.359375 5.78125 -9.140625 C 6.25 -8.929688 6.617188 -8.640625 6.890625 -8.265625 C 7.171875 -7.898438 7.316406 -7.476562 7.328125 -7 Z M 6.234375 -7 "/></g></g></g><g fill="#201212" fill-opacity="1"><g transform="translate(154.026942, 191.901322)"><g/></g></g><g fill="#201212" fill-opacity="1"><g transform="translate(160.255739, 191.901322)"><g><path d="M 7.515625 -6.421875 C 7.316406 -7.035156 6.988281 -7.519531 6.53125 -7.875 C 6.082031 -8.226562 5.523438 -8.40625 4.859375 -8.40625 C 4.296875 -8.40625 3.785156 -8.257812 3.328125 -7.96875 C 2.878906 -7.6875 2.519531 -7.269531 2.25 -6.71875 C 1.988281 -6.164062 1.859375 -5.484375 1.859375 -4.671875 C 1.859375 -3.859375 1.992188 -3.171875 2.265625 -2.609375 C 2.535156 -2.054688 2.898438 -1.640625 3.359375 -1.359375 C 3.828125 -1.078125 4.347656 -0.9375 4.921875 -0.9375 C 5.453125 -0.9375 5.921875 -1.046875 6.328125 -1.265625 C 6.734375 -1.484375 7.050781 -1.796875 7.28125 -2.203125 C 7.507812 -2.617188 7.628906 -3.109375 7.640625 -3.671875 L 5.1875 -3.671875 L 5.1875 -4.671875 L 8.734375 -4.671875 L 8.734375 -3.671875 C 8.734375 -2.898438 8.570312 -2.226562 8.25 -1.65625 C 7.925781 -1.09375 7.472656 -0.65625 6.890625 -0.34375 C 6.316406 -0.03125 5.660156 0.125 4.921875 0.125 C 4.097656 0.125 3.375 -0.0664062 2.75 -0.453125 C 2.125 -0.847656 1.632812 -1.398438 1.28125 -2.109375 C 0.9375 -2.828125 0.765625 -3.679688 0.765625 -4.671875 C 0.765625 -5.648438 0.9375 -6.5 1.28125 -7.21875 C 1.632812 -7.9375 2.117188 -8.488281 2.734375 -8.875 C 3.347656 -9.269531 4.054688 -9.46875 4.859375 -9.46875 C 5.515625 -9.46875 6.109375 -9.335938 6.640625 -9.078125 C 7.171875 -8.828125 7.613281 -8.472656 7.96875 -8.015625 C 8.332031 -7.554688 8.570312 -7.023438 8.6875 -6.421875 Z M 7.515625 -6.421875 "/></g></g></g><g fill="#201212" fill-opacity="1"><g transform="translate(172.40786, 191.901322)"><g><path d="M 1.125 0 L 1.125 -9.34375 L 6.765625 -9.34375 L 6.765625 -8.34375 L 2.265625 -8.34375 L 2.265625 -5.1875 L 6.46875 -5.1875 L 6.46875 -4.171875 L 2.265625 -4.171875 L 2.265625 -1 L 6.84375 -1 L 6.84375 0 Z M 1.125 0 "/></g></g></g><g fill="#201212" fill-opacity="1"><g transform="translate(182.700967, 191.901322)"><g><path d="M 0.625 -8.34375 L 0.625 -9.34375 L 7.625 -9.34375 L 7.625 -8.34375 L 4.6875 -8.34375 L 4.6875 0 L 3.5625 0 L 3.5625 -8.34375 Z M 0.625 -8.34375 "/></g></g></g><g fill="#201212" fill-opacity="1"><g transform="translate(193.559071, 191.901322)"><g/></g></g><g fill="#201212" fill-opacity="1"><g transform="translate(199.787865, 191.901322)"><g><path d="M 1.125 0 L 1.125 -9.34375 L 4.390625 -9.34375 C 5.046875 -9.34375 5.582031 -9.226562 6 -9 C 6.425781 -8.78125 6.742188 -8.484375 6.953125 -8.109375 C 7.160156 -7.734375 7.265625 -7.316406 7.265625 -6.859375 C 7.265625 -6.453125 7.191406 -6.117188 7.046875 -5.859375 C 6.910156 -5.597656 6.722656 -5.390625 6.484375 -5.234375 C 6.253906 -5.085938 6.007812 -4.976562 5.75 -4.90625 L 5.75 -4.8125 C 6.03125 -4.789062 6.316406 -4.6875 6.609375 -4.5 C 6.898438 -4.320312 7.140625 -4.0625 7.328125 -3.71875 C 7.523438 -3.382812 7.625 -2.972656 7.625 -2.484375 C 7.625 -2.015625 7.515625 -1.59375 7.296875 -1.21875 C 7.085938 -0.84375 6.753906 -0.546875 6.296875 -0.328125 C 5.835938 -0.109375 5.238281 0 4.5 0 Z M 2.265625 -1 L 4.5 -1 C 5.238281 -1 5.765625 -1.140625 6.078125 -1.421875 C 6.390625 -1.710938 6.546875 -2.066406 6.546875 -2.484375 C 6.546875 -2.796875 6.460938 -3.085938 6.296875 -3.359375 C 6.140625 -3.628906 5.910156 -3.84375 5.609375 -4 C 5.316406 -4.164062 4.96875 -4.25 4.5625 -4.25 L 2.265625 -4.25 Z M 2.265625 -5.234375 L 4.359375 -5.234375 C 4.867188 -5.234375 5.300781 -5.378906 5.65625 -5.671875 C 6.007812 -5.972656 6.1875 -6.367188 6.1875 -6.859375 C 6.1875 -7.265625 6.039062 -7.613281 5.75 -7.90625 C 5.46875 -8.195312 5.015625 -8.34375 4.390625 -8.34375 L 2.265625 -8.34375 Z M 2.265625 -5.234375 "/></g></g></g><g fill="#201212" fill-opacity="1"><g transform="translate(210.755313, 191.901322)"><g><path d="M 1.125 0 L 1.125 -9.34375 L 4.28125 -9.34375 C 5.007812 -9.34375 5.609375 -9.21875 6.078125 -8.96875 C 6.546875 -8.71875 6.894531 -8.375 7.125 -7.9375 C 7.351562 -7.507812 7.46875 -7.019531 7.46875 -6.46875 C 7.46875 -5.851562 7.320312 -5.316406 7.03125 -4.859375 C 6.75 -4.398438 6.3125 -4.066406 5.71875 -3.859375 L 7.828125 0 L 6.515625 0 L 4.546875 -3.65625 C 4.460938 -3.65625 4.382812 -3.65625 4.3125 -3.65625 L 2.265625 -3.65625 L 2.265625 0 Z M 2.265625 -4.671875 L 4.265625 -4.671875 C 5.015625 -4.671875 5.546875 -4.832031 5.859375 -5.15625 C 6.179688 -5.476562 6.34375 -5.914062 6.34375 -6.46875 C 6.34375 -7.039062 6.179688 -7.492188 5.859375 -7.828125 C 5.546875 -8.171875 5.007812 -8.34375 4.25 -8.34375 L 2.265625 -8.34375 Z M 2.265625 -4.671875 "/></g></g></g><g fill="#201212" fill-opacity="1"><g transform="translate(221.576956, 191.901322)"><g><path d="M 1.515625 0 L 0.328125 0 L 3.765625 -9.34375 L 4.921875 -9.34375 L 8.359375 0 L 7.171875 0 L 6.234375 -2.640625 L 2.453125 -2.640625 Z M 2.8125 -3.65625 L 5.875 -3.65625 L 4.375 -7.859375 L 4.3125 -7.859375 Z M 2.8125 -3.65625 "/></g></g></g><g fill="#201212" fill-opacity="1"><g transform="translate(232.872474, 191.901322)"><g><path d="M 2.265625 -9.34375 L 2.265625 0 L 1.125 0 L 1.125 -9.34375 Z M 2.265625 -9.34375 "/></g></g></g><g fill="#201212" fill-opacity="1"><g transform="translate(238.882555, 191.901322)"><g><path d="M 4.015625 0 L 1.125 0 L 1.125 -9.34375 L 4.140625 -9.34375 C 5.046875 -9.34375 5.820312 -9.15625 6.46875 -8.78125 C 7.113281 -8.40625 7.609375 -7.867188 7.953125 -7.171875 C 8.296875 -6.484375 8.46875 -5.65625 8.46875 -4.6875 C 8.46875 -3.71875 8.289062 -2.878906 7.9375 -2.171875 C 7.59375 -1.472656 7.085938 -0.9375 6.421875 -0.5625 C 5.765625 -0.1875 4.960938 0 4.015625 0 Z M 2.265625 -1 L 3.9375 -1 C 5.09375 -1 5.953125 -1.328125 6.515625 -1.984375 C 7.085938 -2.648438 7.375 -3.550781 7.375 -4.6875 C 7.375 -5.820312 7.09375 -6.710938 6.53125 -7.359375 C 5.976562 -8.015625 5.15625 -8.34375 4.0625 -8.34375 L 2.265625 -8.34375 Z M 2.265625 -1 "/></g></g></g><g fill="#201212" fill-opacity="1"><g transform="translate(250.724832, 191.901322)"><g><path d="M 1.125 0 L 1.125 -9.34375 L 6.765625 -9.34375 L 6.765625 -8.34375 L 2.265625 -8.34375 L 2.265625 -5.1875 L 6.46875 -5.1875 L 6.46875 -4.171875 L 2.265625 -4.171875 L 2.265625 -1 L 6.84375 -1 L 6.84375 0 Z M 1.125 0 "/></g></g></g><g fill="#201212" fill-opacity="1"><g transform="translate(261.017934, 191.901322)"><g><path d="M 4.015625 0 L 1.125 0 L 1.125 -9.34375 L 4.140625 -9.34375 C 5.046875 -9.34375 5.820312 -9.15625 6.46875 -8.78125 C 7.113281 -8.40625 7.609375 -7.867188 7.953125 -7.171875 C 8.296875 -6.484375 8.46875 -5.65625 8.46875 -4.6875 C 8.46875 -3.71875 8.289062 -2.878906 7.9375 -2.171875 C 7.59375 -1.472656 7.085938 -0.9375 6.421875 -0.5625 C 5.765625 -0.1875 4.960938 0 4.015625 0 Z M 2.265625 -1 L 3.9375 -1 C 5.09375 -1 5.953125 -1.328125 6.515625 -1.984375 C 7.085938 -2.648438 7.375 -3.550781 7.375 -4.6875 C 7.375 -5.820312 7.09375 -6.710938 6.53125 -7.359375 C 5.976562 -8.015625 5.15625 -8.34375 4.0625 -8.34375 L 2.265625 -8.34375 Z M 2.265625 -1 "/></g></g></g></svg>